HIERARCHY
ROOT root
{
	OFFSET	0	13.1	24.9
	CHANNELS 6  Xposition Yposition Zposition Xrotation Yrotation Zrotation
	JOINT spine_1
	{
		OFFSET	0	9.99999	0
		CHANNELS 3  Xrotation Yrotation Zrotation
		JOINT spine_2
		{
			OFFSET	0	112	-10
			CHANNELS 3  Xrotation Yrotation Zrotation
			JOINT spine_3
			{
				OFFSET	0	206.5	19.3
				CHANNELS 3  Xrotation Yrotation Zrotation
				JOINT spine_4
				{
					OFFSET	0	110.4	14.6
					CHANNELS 3  Xrotation Yrotation Zrotation
					JOINT neck_1
					{
						OFFSET	0	71.8	-50.3
						CHANNELS 3  Xrotation Yrotation Zrotation
						JOINT neck_2
						{
							OFFSET	0	86.2	-25.8
							CHANNELS 3  Xrotation Yrotation Zrotation
							JOINT head_ee
							{
								OFFSET	0	179.8	-8.7
								CHANNELS 3  Xrotation Yrotation Zrotation
								End Site
								{
									OFFSET	1	0	0
								}
							}
						}
					}
					JOINT left_clavicle
					{
						OFFSET	-43.2	22.4	-70.8
						CHANNELS 3  Xrotation Yrotation Zrotation
						JOINT left_shoulder
						{
							OFFSET	-93.9	-5.79999	48.7
							CHANNELS 3  Xrotation Yrotation Zrotation
							JOINT left_elbow
							{
								OFFSET	-291.4	-30.8	15.2
								CHANNELS 3  Xrotation Yrotation Zrotation
								JOINT left_lowarm_twist
								{
									OFFSET	-110.7	-3.89999	13.6
									CHANNELS 3  Xrotation Yrotation Zrotation
									JOINT left_hand
									{
										OFFSET	-110.7	-3.89999	13.6
										CHANNELS 3  Xrotation Yrotation Zrotation
										JOINT left_ee
										{
											OFFSET	-80.8	-5.10001	12.1
											CHANNELS 3  Xrotation Yrotation Zrotation
											End Site
											{
												OFFSET	1	0	0
											}
										}
									}
								}
							}
						}
					}
					JOINT right_clavicle
					{
						OFFSET	43.2	22.4	-70.8
						CHANNELS 3  Xrotation Yrotation Zrotation
						JOINT right_shoulder
						{
							OFFSET	93.9	-5.79999	48.7
							CHANNELS 3  Xrotation Yrotation Zrotation
							JOINT right_elbow
							{
								OFFSET	291.4	-30.8	15.2
								CHANNELS 3  Xrotation Yrotation Zrotation
								JOINT right_lowarm_twist
								{
									OFFSET	110.7	-3.89999	13.6
									CHANNELS 3  Xrotation Yrotation Zrotation
									JOINT right_hand
									{
										OFFSET	110.7	-3.89999	13.6
										CHANNELS 3  Xrotation Yrotation Zrotation
										JOINT right_ee
										{
											OFFSET	80.8	-5.10001	12.1
											CHANNELS 3  Xrotation Yrotation Zrotation
											End Site
											{
												OFFSET	1	0	0
											}
										}
									}
								}
							}
						}
					}
				}
			}
		}
	}
	JOINT left_hip
	{
		OFFSET	-82.8	-127.5	0.300001
		CHANNELS 3  Xrotation Yrotation Zrotation
		JOINT left_knee
		{
			OFFSET	-28.2	-396.7	2.2
			CHANNELS 3  Xrotation Yrotation Zrotation
			JOINT left_ankle
			{
				OFFSET	-11.7	-411.3	35.4
				CHANNELS 3  Xrotation Yrotation Zrotation
				JOINT left_toes
				{
					OFFSET	0	-60	-88.6
					CHANNELS 3  Xrotation Yrotation Zrotation
					JOINT left_foot_ee
					{
						OFFSET	-22.5	-16.5	-42.2
						CHANNELS 3  Xrotation Yrotation Zrotation
						End Site
						{
							OFFSET	1	0	0
						}
					}
				}
			}
		}
	}
	JOINT right_hip
	{
		OFFSET	82.8	-127.5	0.300001
		CHANNELS 3  Xrotation Yrotation Zrotation
		JOINT right_knee
		{
			OFFSET	28.2	-396.7	2.2
			CHANNELS 3  Xrotation Yrotation Zrotation
			JOINT right_ankle
			{
				OFFSET	11.7	-411.3	35.4
				CHANNELS 3  Xrotation Yrotation Zrotation
				JOINT right_toes
				{
					OFFSET	0	-60	-88.6
					CHANNELS 3  Xrotation Yrotation Zrotation
					JOINT right_foot_ee
					{
						OFFSET	22.5	-16.5	-42.2
						CHANNELS 3  Xrotation Yrotation Zrotation
						End Site
						{
							OFFSET	1	0	0
						}
					}
				}
			}
		}
	}
}
MOTION
Frames: 16
Frame Time: 0.02
3887.18 732.813 -330.943 5.66251 51.389 -8.96234 -2.47057 0.23445 1.32703 -2.46961 0.14954 1.33926 -2.46491 -0.19284 1.33371 -2.46739 0.0201958 1.34743 1.53525 9.39604 -2.27484 1.88786 18.4659 -1.72107 -0.0 0.0 -0.0 9.15062 -1.48579 17.959 -2.29753 15.3396 61.605 0.694387 -18.9822 0.116091 -4.56458 -0.183021 0.553872 0.94901 -1.57781 5.70462 -0.0 0.0 -0.0 13.3285 26.6344 -26.3603 -5.49313 -6.00922 -63.8899 0.343721 9.66324 -0.0290541 -5.80421 0.240305 -0.701655 -1.5324 8.80574 14.2292 0.0 0.0 0.0 2.92668 22.6885 1.42254 -19.2406 0.303901 2.92314 12.7666 11.693 -1.80097 34.6168 -0.0 -0.0 -0.0 0.0 -0.0 5.82439 -1.002 10.519 -14.6708 -0.321043 -2.22238 10.7742 5.37014 1.56873 22.0479 -0.0 -0.0 0.0 0.0 0.0 
3887.41 729.602 -331.677 6.48121 52.5075 -9.59217 -2.4863 0.238219 1.52577 -2.48501 0.140659 1.53784 -2.47968 -0.251896 1.52358 -2.48292 -0.00814397 1.54423 1.76283 9.98373 -1.15633 2.09841 18.5481 -0.471714 -0.0 0.0 -0.0 8.90116 -2.28857 17.4627 -2.43841 14.6815 63.5118 0.684468 -18.7301 0.112885 -4.11758 -0.163152 0.500288 0.921018 -1.48832 5.55292 -0.0 0.0 -0.0 13.304 26.4351 -26.3282 -5.00837 -6.08336 -65.2387 0.34675 9.74678 -0.0295648 -5.23434 0.213573 -0.633869 -1.50938 8.53288 13.9495 0.0 0.0 0.0 2.8805 22.7821 -0.561572 -18.7996 0.307992 2.85559 12.635 10.7004 -1.7814 34.7138 -0.0 -0.0 -0.0 0.0 -0.0 6.27842 -1.22669 10.6592 -17.6341 -0.316298 -2.67697 8.05223 3.55356 1.17588 21.9253 -0.0 -0.0 0.0 0.0 0.0 
3885.92 729.08 -334.383 7.6846 53.6153 -10.5009 -2.5096 0.221498 1.53486 -2.5083 0.123394 1.54584 -2.50342 -0.271262 1.52686 -2.50667 -0.0267491 1.55053 1.91903 10.3991 -0.375321 2.24653 18.609 0.402381 -0.0 0.0 -0.0 8.52418 -3.33897 16.6971 -2.3402 14.1063 64.4899 0.685665 -18.7605 0.11327 -3.70679 -0.145263 0.450911 0.921274 -1.58824 5.51348 -0.0 0.0 -0.0 13.371 26.2784 -26.5027 -4.66009 -6.22607 -66.487 0.349021 9.80937 -0.0299505 -4.76522 0.192075 -0.577874 -1.4924 8.25832 13.7111 0.0 0.0 0.0 2.89949 22.9667 -1.47986 -17.6667 0.316115 2.68196 12.5392 9.95742 -1.76747 34.8272 -0.0 -0.0 -0.0 0.0 -0.0 6.49615 -1.21417 10.5812 -20.0863 -0.294603 -3.05256 5.97228 2.28238 0.874429 21.76 -0.0 -0.0 0.0 0.0 0.0 
3887.5 730.235 -334.649 6.43057 54.6486 -9.21403 -2.45693 0.211315 1.56641 -2.45557 0.111224 1.57668 -2.45092 -0.289413 1.55388 -2.45429 -0.0404056 1.58008 2.00097 10.4489 0.910317 2.27823 17.6083 1.82097 -0.0 0.0 -0.0 8.23697 -5.29886 16.1016 -1.94074 14.0545 65.3455 0.686561 -18.7833 0.113558 -2.92288 -0.112111 0.35634 0.8723 -2.23417 4.91674 -0.0 0.0 -0.0 13.3241 26.3088 -26.3903 -4.25538 -6.12762 -67.1596 0.388437 10.892 -0.0370328 -3.58644 0.140089 -0.436421 -1.52222 7.67018 13.6597 0.0 0.0 0.0 1.14518 24.2892 -0.635571 -11.8725 0.303944 1.79342 12.9418 8.13233 -1.82012 34.9991 -0.0 -0.0 -0.0 0.0 -0.0 7.07364 -1.31887 9.71998 -21.4624 -0.275393 -3.26283 4.28563 -0.0563817 0.62655 21.9336 -0.0 -0.0 0.0 0.0 0.0 
3884.84 728.365 -329.772 6.24437 55.3538 -8.48105 -2.45695 0.207685 1.59138 -2.45555 0.106013 1.60137 -2.45096 -0.300677 1.57646 -2.45443 -0.0479649 1.60415 1.99444 10.328 2.49964 2.216 16.0599 3.57047 -0.0 0.0 -0.0 7.75044 -6.96522 15.0616 -1.65241 14.0274 65.9509 0.616541 -16.9836 0.0920536 -2.28736 -0.0861884 0.279347 0.748518 -2.7201 3.88129 -0.0 0.0 -0.0 13.2354 25.9613 -26.2265 -5.16668 -5.82556 -67.4333 0.404187 11.3224 -0.0400669 -2.36849 0.0894501 -0.289192 -1.50115 7.12663 13.2739 0.0 0.0 0.0 0.113962 25.197 -0.215121 -7.64707 0.238495 1.1485 14.914 6.72686 -2.08157 35.7675 -0.0 -0.0 -0.0 0.0 -0.0 7.72227 -1.19236 9.50546 -22.4177 -0.25909 -3.40852 3.10646 -1.73096 0.45399 22.0599 -0.0 -0.0 0.0 0.0 0.0 
3882.27 732.122 -324.349 6.44309 55.58 -8.38132 -2.46164 0.0426907 1.28707 -2.46072 -0.0392882 1.28717 -2.46068 -0.362393 1.23574 -2.46277 -0.1627 1.27746 2.01717 10.0318 3.27917 2.20943 14.8762 4.40749 -0.0 0.0 -0.0 7.34528 -8.72229 14.1637 0.170579 13.5759 65.9083 0.600344 -16.5622 0.0873794 -0.83804 -0.0302806 0.102738 0.769831 -1.67688 4.4576 -0.0 0.0 -0.0 12.8752 25.8724 -25.4039 -7.7884 -5.33543 -67.502 0.379323 10.6423 -0.0353301 -1.50305 0.0553783 -0.183947 -1.5454 7.57819 13.7802 0.0 0.0 0.0 -0.759232 26.8317 0.662669 -4.76197 0.166565 0.711629 16.6125 5.08472 -2.30416 36.9521 -0.0 -0.0 -0.0 0.0 -0.0 7.86596 2.84404 8.47603 -23.0881 -0.246199 -3.51058 1.70225 -7.18668 0.248117 22.1045 -0.0 -0.0 0.0 0.0 0.0 
3874.69 726.058 -315.058 5.06835 55.5225 -6.9446 -2.4277 0.203794 1.03154 -2.42711 0.137745 1.04242 -2.42387 -0.12868 1.04358 -2.42539 0.037739 1.0508 3.0621 9.48253 2.0189 3.26899 14.8131 2.89166 -0.0 0.0 -0.0 7.45003 -10.0316 14.3404 1.26451 11.6307 67.4064 0.54273 -15.0485 0.0716858 1.10953 0.0377696 -0.136671 0.672073 -1.81426 3.74343 -0.0 0.0 -0.0 12.7767 25.9076 -25.1726 -9.04183 -4.91832 -66.9281 0.41448 11.603 -0.0421125 -0.266326 0.00945984 -0.0326969 -1.6564 7.77655 14.6406 0.0 0.0 0.0 -1.40813 27.9634 1.18972 -3.2942 0.121547 0.490875 20.2444 3.28661 -2.76705 38.9112 -0.0 -0.0 -0.0 0.0 -0.0 7.92232 6.58841 8.11134 -23.568 -0.236237 -3.58356 2.25877 -12.1289 0.329422 23.6646 -0.0 -0.0 0.0 0.0 0.0 
3868.29 721.449 -299.99 5.68388 54.8098 -7.10753 -2.49642 0.296077 0.893085 -2.496 0.23865 0.910113 -2.49158 0.00114469 0.940879 -2.49278 0.149718 0.928892 3.43301 8.86167 0.870699 3.64934 14.6587 1.53625 -0.0 0.0 -0.0 7.55809 -10.6052 14.549 1.30152 10.188 69.1583 0.545751 -15.1284 0.0724723 3.11589 0.0993157 -0.385545 0.585743 -1.63908 3.23621 -0.0 0.0 -0.0 12.3101 26.0959 -24.0791 -10.5879 -3.30842 -64.5126 0.452916 12.6457 -0.0501856 1.18564 -0.0402638 0.146073 -1.58898 7.93582 14.241 0.0 0.0 0.0 -2.21121 29.4312 3.40929 -7.96271 0.245027 1.19649 27.725 -0.00595593 -3.66263 40.1734 -0.0 -0.0 -0.0 0.0 -0.0 7.51138 9.7001 7.30684 -23.8646 -0.229775 -3.62861 2.61435 -17.2642 0.384778 24.0801 -0.0 -0.0 0.0 0.0 0.0 
3857.48 719.888 -293.405 7.01842 53.9959 -8.1566 -2.7207 0.373503 0.795906 -2.7204 0.322102 0.818058 -2.71523 0.101737 0.873277 -2.71621 0.238373 0.846253 2.51723 8.0143 0.241816 2.69922 13.8238 0.859834 -0.0 0.0 -0.0 7.56079 -10.9949 14.5396 -0.08702 8.91653 68.2187 0.55439 -15.3566 0.0747433 5.7467 0.166736 -0.714815 0.633698 -3.31412 2.86036 -0.0 0.0 -0.0 12.0201 26.2429 -23.3992 -11.984 -1.77521 -64.4029 0.481303 13.4105 -0.056585 2.2145 -0.0727447 0.273473 -1.61525 8.03421 14.4674 0.0 0.0 0.0 -1.54908 30.4576 3.8488 -10.7787 0.291568 1.62605 30.5044 -2.49528 -3.98606 40.177 -0.0 -0.0 -0.0 0.0 -0.0 7.15012 13.4289 7.99927 -27.6592 -0.126583 -4.20169 6.18377 -20.6087 0.911483 24.8355 -0.0 -0.0 0.0 0.0 0.0 
3850.71 717.455 -293.688 8.64319 52.9419 -10.0567 -2.9063 0.45542 0.989769 -2.90584 0.391519 1.01674 -2.89797 0.114484 1.08348 -2.89949 0.284153 1.05181 1.87236 7.44825 -0.186192 2.0335 13.2562 0.402242 -0.0 0.0 -0.0 7.61286 -11.2944 14.6388 -1.0426 8.02094 67.6127 0.561862 -15.5536 0.0767346 7.59301 0.204987 -0.947553 0.668023 -4.49911 2.59495 -0.0 0.0 -0.0 11.7895 26.3481 -22.8616 -13.0532 -0.707833 -64.312 0.501426 13.9497 -0.0613443 2.93641 -0.0941657 0.363196 -1.63404 8.10041 14.6276 0.0 0.0 0.0 -1.12249 31.1482 3.78038 -12.7729 0.311732 1.93135 32.381 -4.22855 -4.20194 40.1622 -0.0 -0.0 -0.0 0.0 -0.0 7.53093 15.9845 8.09722 -30.1355 -0.0388532 -4.57158 8.72993 -22.9299 1.28991 25.3642 -0.0 -0.0 0.0 0.0 0.0 
3844.66 722.713 -290.206 8.31247 50.6571 -9.99227 -2.89038 0.537526 1.162 -2.88974 0.462502 1.19384 -2.87884 0.137559 1.27288 -2.88094 0.336844 1.23519 1.42195 7.60596 0.364712 1.56669 13.1187 1.06079 -0.0 0.0 -0.0 7.86201 -13.078 15.0965 -0.375102 7.42101 66.3854 0.590474 -16.3045 0.0845872 9.67744 0.239132 -1.21161 0.722974 -5.3948 2.58881 -0.0 0.0 -0.0 12.3325 27.3223 -23.9838 -12.406 0.820465 -64.213 0.520809 14.4667 -0.0661018 3.44131 -0.108474 0.426104 -1.65676 7.98757 14.7363 0.0 0.0 0.0 -2.08087 32.1716 4.45087 -13.7894 0.317917 2.08719 33.3117 -5.32703 -4.31166 40.1564 -0.0 -0.0 -0.0 0.0 -0.0 9.1255 17.4448 6.59663 -31.8736 0.0322454 -4.82882 12.471 -24.2202 1.83228 26.1694 -0.0 -0.0 0.0 0.0 0.0 
3844.03 723.472 -290.365 9.07687 48.8091 -10.3847 -3.08709 0.589229 1.2885 -3.08631 0.506052 1.32338 -3.07301 0.141313 1.40976 -3.0756 0.362164 1.36976 1.1075 7.7197 0.762302 1.24228 13.0224 1.5323 -0.0 0.0 -0.0 7.89405 -14.3872 15.101 -0.0816244 6.99585 65.2712 0.608581 -16.7768 0.0897422 11.1356 0.257296 -1.39698 0.761993 -6.02807 2.58508 -0.0 0.0 -0.0 12.7149 27.9314 -24.7815 -11.9364 1.90019 -64.1524 0.534428 14.8285 -0.0695456 3.79504 -0.118168 0.47025 -1.67162 7.92179 14.8109 0.0 0.0 0.0 -2.76609 32.8799 4.90378 -14.5 0.3206 2.19619 33.9425 -6.09727 -4.38655 40.1478 -0.0 -0.0 -0.0 0.0 -0.0 10.7769 18.3821 5.18997 -33.0486 0.0847243 -5.00148 15.163 -25.0533 2.21671 26.743 -0.0 -0.0 0.0 0.0 0.0 
3838.84 727.361 -291.751 8.70228 47.7316 -9.71627 -3.07353 0.640799 1.34642 -3.07269 0.553832 1.38446 -3.05753 0.171821 1.48118 -3.06037 0.403565 1.43547 0.898073 7.86428 1.10416 1.02793 13.0186 1.93515 -0.0 0.0 -0.0 7.42012 -15.5234 14.0091 0.13538 6.63484 63.5463 0.622638 -17.1418 0.0938425 12.1325 0.266996 -1.52394 0.789929 -6.47742 2.58381 -0.0 0.0 -0.0 12.9726 28.3565 -25.3162 -11.5187 2.66625 -63.7962 0.545238 15.1148 -0.0723384 4.06121 -0.125282 0.503506 -1.68147 7.88533 14.8636 0.0 0.0 0.0 -3.4002 33.3337 4.66643 -15.0013 0.321679 2.27309 34.3064 -6.56581 -4.43025 40.1281 -0.0 -0.0 -0.0 0.0 -0.0 12.3299 19.0612 4.66396 -33.8647 0.123255 -5.12076 17.0594 -25.6392 2.48462 27.1559 -0.0 -0.0 0.0 0.0 0.0 
3842.83 725.871 -290.721 8.28461 47.3645 -9.99976 -3.07583 0.717936 1.73695 -3.07436 0.605972 1.7791 -3.05269 0.118945 1.87567 -3.05736 0.413629 1.83337 0.744206 7.99775 1.39821 0.871154 13.0302 2.27951 -0.0 0.0 -0.0 7.15289 -16.2797 13.3822 0.196937 6.34353 62.538 0.632731 -17.403 0.0968393 12.8296 0.272466 -1.61281 0.812827 -6.80025 2.60183 -0.0 0.0 -0.0 13.1201 28.5024 -25.6353 -11.2485 3.18536 -63.4518 0.552104 15.2963 -0.0741391 4.25334 -0.130322 0.527531 -1.69058 7.86178 14.9168 0.0 0.0 0.0 -3.86363 33.6507 4.50668 -15.3528 0.322034 2.32702 34.4958 -6.88546 -4.45433 40.1075 -0.0 -0.0 -0.0 0.0 -0.0 13.9323 19.2999 3.51472 -34.4296 0.150924 -5.20301 18.4076 -26.0258 2.67305 27.4537 -0.0 -0.0 0.0 0.0 0.0 
3838.89 728.357 -290.294 8.99899 47.3095 -10.2311 -3.30701 0.734464 1.79327 -3.30544 0.618885 1.83636 -3.28244 0.10866 1.93476 -3.28743 0.4128 1.89334 0.632214 8.09219 1.60772 0.7574 13.0385 2.52459 -0.0 0.0 -0.0 6.96689 -16.8069 12.9438 0.20683 6.04939 61.8519 0.643928 -17.6919 0.100215 13.3183 0.275655 -1.67515 0.838343 -7.05031 2.66826 -0.0 0.0 -0.0 13.5449 27.8871 -26.6989 -11.1751 3.53608 -64.0757 0.543966 15.0812 -0.072007 4.40574 -0.134261 0.546601 -1.69734 7.79514 14.9345 0.0 0.0 0.0 -4.16822 34.2198 5.59745 -15.6404 0.322078 2.37115 34.5107 -7.0772 -4.45911 40.0582 -0.0 -0.0 -0.0 0.0 -0.0 15.0566 19.152 1.88106 -35.117 0.185688 -5.30273 19.3442 -26.1409 2.80054 27.6616 -0.0 -0.0 0.0 0.0 0.0 
3836.56 730.246 -287.168 8.45409 47.3512 -9.96412 -3.3149 0.743888 1.96192 -3.31297 0.617564 2.00526 -3.28765 0.0623082 2.09724 -3.29357 0.392675 2.06111 2.17826 8.12519 1.14001 2.33378 13.2992 1.89282 -0.0 0.0 -0.0 7.09783 -17.1072 13.2073 0.000247719 5.09453 61.4773 0.670955 -18.3854 0.108584 13.6905 0.277728 -1.72264 0.950063 -7.29254 3.32062 -0.0 0.0 -0.0 13.5835 27.4288 -26.8497 -11.3273 3.75797 -64.1982 0.535935 14.8684 -0.0699319 4.69586 -0.141621 0.582929 -1.69504 7.52682 14.7996 0.0 0.0 0.0 -6.96418 33.0873 7.10071 -16.0843 0.321712 2.43925 33.1107 -7.04323 -4.31853 40.1917 -0.0 -0.0 -0.0 0.0 -0.0 19.8009 18.8364 -0.580822 -37.8247 0.33421 -5.69134 19.8123 -26.2515 2.86479 27.8227 -0.0 -0.0 0.0 0.0 0.0 
